<?xml version="1.0" encoding="UTF-8"?>
<svg width="573px" height="216px" viewBox="0 0 573 216" version="1.1" xmlns="http://www.w3.org/2000/svg" xmlns:xlink="http://www.w3.org/1999/xlink">
    <title>VegifyLogoGreenWhite</title>
    <defs>
        <path d="M0.253,61.636 C0.253,105.089 35.479,140.315 78.931,140.315 L78.931,140.315 C59.868,140.315 19.38,0.441 0.253,0.441 L0.253,0.441 L0.253,61.636 Z" id="path-1"></path>
        <linearGradient x1="28.1945784%" y1="65.9039052%" x2="52.8537629%" y2="47.9186019%" id="linearGradient-3">
            <stop stop-color="#318331" offset="0%"></stop>
            <stop stop-color="#67AE3D" offset="100%"></stop>
        </linearGradient>
        <path d="M78.931,140.315 L78.931,79.12 C78.931,35.667 43.706,0.441 0.253,0.441 L0.253,0.441 C19.38,0.441 59.868,140.315 78.931,140.315" id="path-4"></path>
        <linearGradient x1="46.5840071%" y1="53.3596345%" x2="61.4427456%" y2="38.7465751%" id="linearGradient-6">
            <stop stop-color="#318331" offset="0%"></stop>
            <stop stop-color="#67AE3D" offset="100%"></stop>
        </linearGradient>
    </defs>
    <g id="Brand-Symbols" stroke="none" stroke-width="1" fill="none" fill-rule="evenodd">
        <g id="VegifyLogoGreenWhite">
            <polygon id="Fill-66" fill="#FFFFFF" points="111.3135 61.5469 83.7085 133.4849 83.7085 164.3149 97.1905 164.3149 142.1965 61.5469"></polygon>
            <g id="Group-77">
                <path d="M211.3984,102.7627 C211.3984,99.4867 210.9344,96.3507 210.0094,93.3587 C209.0814,90.3667 207.6214,87.7317 205.6274,85.4517 C203.6304,83.1747 201.1024,81.3567 198.0414,80.0007 C194.9744,78.6497 191.3784,77.9707 187.2484,77.9707 C179.5534,77.9707 173.0354,80.2877 167.6924,84.9167 C162.3494,89.5477 159.3894,95.4957 158.8234,102.7627 L211.3984,102.7627 Z M237.0444,114.3037 L237.0444,117.7237 C237.0444,118.8657 236.9714,120.0047 236.8314,121.1427 L158.8234,121.1427 C159.1064,124.8497 160.0684,128.2327 161.7094,131.2947 C163.3444,134.3617 165.5184,136.9957 168.2264,139.2007 C170.9314,141.4127 173.9974,143.1567 177.4174,144.4397 C180.8364,145.7207 184.3964,146.3617 188.1034,146.3617 C194.5144,146.3617 199.9264,145.1857 204.3454,142.8367 C208.7594,140.4857 212.3934,137.2447 215.2454,133.1117 L232.3424,146.7887 C222.2244,160.4677 207.5514,167.3067 188.3164,167.3067 C180.3354,167.3067 172.9994,166.0577 166.3024,163.5667 C159.6044,161.0757 153.7994,157.5497 148.8844,152.9867 C143.9684,148.4297 140.1234,142.8367 137.3434,136.2087 C134.5654,129.5837 133.1754,122.0717 133.1754,113.6627 C133.1754,105.4017 134.5654,97.8837 137.3434,91.1157 C140.1234,84.3487 143.9324,78.5787 148.7774,73.8027 C153.6204,69.0327 159.3574,65.3267 165.9824,62.6907 C172.6084,60.0557 179.7674,58.7367 187.4614,58.7367 C194.5854,58.7367 201.1724,59.9117 207.2314,62.2637 C213.2854,64.6127 218.5204,68.1057 222.9394,72.7357 C227.3534,77.3667 230.8104,83.1367 233.3054,90.0467 C235.7954,96.9597 237.0444,105.0437 237.0444,114.3037 L237.0444,114.3037 Z" id="Fill-67" fill="#FFFFFF"></path>
                <path d="M296.5771,79.6816 C291.8751,79.6816 287.7071,80.5356 284.0741,82.2386 C280.4411,83.9416 277.3751,86.2486 274.8841,89.1606 C272.3901,92.0736 270.4661,95.5166 269.1131,99.4936 C267.7581,103.4706 267.0831,107.7306 267.0831,112.2736 C267.0831,116.3936 267.7581,120.3686 269.1131,124.2016 C270.4661,128.0356 272.3901,131.4826 274.8841,134.5346 C277.3751,137.5866 280.4411,140.0376 284.0741,141.8846 C287.7071,143.7306 291.8011,144.6536 296.3631,144.6536 C301.0651,144.6536 305.3031,143.7666 309.0791,141.9906 C312.8531,140.2136 316.0581,137.8356 318.6961,134.8536 C321.3321,131.8716 323.3621,128.4286 324.7881,124.5226 C326.2111,120.6176 326.9261,116.5336 326.9261,112.2736 C326.9261,107.8716 326.2111,103.6806 324.7881,99.7036 C323.3621,95.7306 321.3321,92.2506 318.6961,89.2686 C316.0581,86.2856 312.8891,83.9416 309.1861,82.2386 C305.4791,80.5356 301.2781,79.6816 296.5771,79.6816 L296.5771,79.6816 Z M351.2891,61.7286 L351.2891,155.1246 C351.2891,164.3846 350.1471,172.7556 347.8701,180.2376 C345.5901,187.7166 342.0631,194.0546 337.2911,199.2586 C332.5151,204.4586 326.4981,208.4806 319.2311,211.3326 C311.9651,214.1816 303.3431,215.6086 293.3711,215.6086 C289.2371,215.6086 284.8551,215.2516 280.2261,214.5386 C275.5961,213.8246 271.0361,212.7566 266.5491,211.3326 C262.0601,209.9086 257.7491,208.1266 253.6181,205.9896 C249.4841,203.8536 245.7801,201.4286 242.5051,198.7236 L257.2521,178.8486 C262.2371,183.5486 267.8641,187.1466 274.1361,189.6416 C280.4041,192.1326 286.7461,193.3796 293.1571,193.3796 C299.2811,193.3796 304.4471,192.4856 308.6521,190.6996 C312.8531,188.9096 316.2021,186.4456 318.6961,183.2996 C321.1871,180.1536 322.9721,176.4326 324.0401,172.1456 C325.1081,167.8536 325.6431,163.1346 325.6431,157.9876 L325.6431,150.4796 L325.2151,150.4796 C321.5091,155.5176 316.7731,159.3686 311.0031,162.0316 C305.2331,164.6926 298.7841,166.0256 291.6611,166.0256 C283.9681,166.0256 276.9851,164.5976 270.7161,161.7496 C264.4451,158.9016 259.1391,155.0546 254.7941,150.2076 C250.4461,145.3676 247.0631,139.7026 244.6411,133.2166 C242.2181,126.7356 241.0091,119.8616 241.0091,112.5936 C241.0091,105.1876 242.1841,98.2046 244.5351,91.6506 C246.8871,85.0966 250.2321,79.3956 254.5801,74.5516 C258.9251,69.7086 264.1981,65.8626 270.3951,63.0096 C276.5941,60.1606 283.5401,58.7366 291.2341,58.7366 C298.5001,58.7366 305.2651,60.2316 311.5381,63.2236 C317.8061,66.2156 322.7911,70.8486 326.4981,77.1166 L326.9261,77.1166 L326.9261,61.7286 L351.2891,61.7286 Z" id="Fill-69" fill="#FFFFFF"></path>
                <path d="M361.793,164.315 L387.439,164.315 L387.439,61.729 L361.793,61.729 L361.793,164.315 Z M358.16,26.892 C358.16,22.76 359.688,19.163 362.755,16.099 C365.816,13.037 369.7,11.504 374.402,11.504 C379.104,11.504 383.059,12.965 386.264,15.886 C389.47,18.806 391.072,22.477 391.072,26.892 C391.072,31.31 389.47,34.979 386.264,37.898 C383.059,40.819 379.104,42.28 374.402,42.28 C369.7,42.28 365.816,40.749 362.755,37.686 C359.688,34.621 358.16,31.026 358.16,26.892 L358.16,26.892 Z" id="Fill-71" fill="#FFFFFF"></path>
                <path d="M412.502,82.2441 L393.053,82.2441 L393.053,61.7281 L412.502,61.7281 L412.502,46.5541 C412.502,40.4301 413.176,34.5511 414.532,28.9221 C415.885,23.2951 418.165,18.3431 421.371,14.0671 C424.576,9.7931 428.814,6.4101 434.088,3.9171 C439.356,1.4261 445.982,0.1761 453.963,0.1761 C456.812,0.1761 459.2,0.2821 461.123,0.4971 C463.047,0.7111 465.004,1.1041 467.001,1.6711 L465.291,23.4711 C463.865,23.0441 462.332,22.6901 460.696,22.4021 C459.057,22.1191 457.31,21.9751 455.459,21.9751 C451.753,21.9751 448.761,22.6901 446.484,24.1131 C444.202,25.5391 442.456,27.3931 441.247,29.6691 C440.035,31.9501 439.217,34.4451 438.79,37.1501 C438.361,39.8581 438.148,42.4941 438.148,45.0561 L438.148,61.7281 L456.72,61.7281 L465.55,82.2441 L438.148,82.2441 L438.148,164.3141 L412.502,164.3141 L412.502,82.2441 Z" id="Fill-73" fill="#FFFFFF"></path>
                <path d="M462.8945,61.7285 L491.3195,61.7285 L519.9585,136.3175 L520.3855,136.3175 L545.8195,61.7285 L572.5345,61.7285 L524.0195,186.3285 C522.1665,191.0305 520.1725,195.1965 518.0355,198.8315 C515.8975,202.4645 513.3335,205.5265 510.3415,208.0215 C507.3495,210.5125 503.8225,212.4035 499.7615,213.6845 C495.7015,214.9655 490.8185,215.6085 485.1225,215.6085 C482.9845,215.6085 480.8115,215.5005 478.6035,215.2875 C476.3925,215.0745 474.1495,214.6785 471.8715,214.1115 L474.0085,191.8845 C475.7175,192.4525 477.3915,192.8465 479.0305,193.0605 C480.6665,193.2745 482.2005,193.3795 483.6255,193.3795 C486.3315,193.3795 488.6125,193.0605 490.4645,192.4195 C492.3145,191.7775 493.8845,190.7795 495.1665,189.4275 C496.4495,188.0705 497.5885,186.3975 498.5865,184.4035 C499.5825,182.4075 500.6505,180.0555 501.7915,177.3515 L506.9205,164.3145 L462.8945,61.7285 Z" id="Fill-74" fill="#FFFFFF"></path>
                <g id="Group-21" transform="translate(0.000000, 25.000000)">
                    <mask id="mask-2" fill="white">
                        <use xlink:href="#path-1"></use>
                    </mask>
                    <g id="Clip-20"></g>
                    <path d="M0.253,61.636 C0.253,105.089 35.479,140.315 78.931,140.315 L78.931,140.315 C59.868,140.315 19.38,0.441 0.253,0.441 L0.253,0.441 L0.253,61.636 Z" id="Fill-19" fill="url(#linearGradient-3)" mask="url(#mask-2)"></path>
                </g>
                <g id="Group-24" transform="translate(0.000000, 25.000000)">
                    <mask id="mask-5" fill="white">
                        <use xlink:href="#path-4"></use>
                    </mask>
                    <g id="Clip-23"></g>
                    <path d="M78.931,140.315 L78.931,79.12 C78.931,35.667 43.706,0.441 0.253,0.441 L0.253,0.441 C19.38,0.441 59.868,140.315 78.931,140.315" id="Fill-22" fill="url(#linearGradient-6)" mask="url(#mask-5)"></path>
                </g>
            </g>
        </g>
    </g>
</svg>
