<?xml version="1.0" encoding="UTF-8"?>
<svg width="142px" height="141px" viewBox="0 0 142 141" version="1.1" xmlns="http://www.w3.org/2000/svg" xmlns:xlink="http://www.w3.org/1999/xlink">
    <title>VegifyIconWhite</title>
    <g id="Brand-Symbols" stroke="none" stroke-width="1" fill="none" fill-rule="evenodd">
        <g id="Icon-/-White" transform="translate(0.000000, 1.000000)" fill="#FFFFFF">
            <g id="VegifyIconWhite" transform="translate(0.000000, -1.000000)">
                <polygon id="Fill-66" points="111.374675 38 84 110.100401 84 141 97.3695117 141 142 38"></polygon>
                <g id="Group-77">
                    <path d="M74.54,140.1904 C33.13,137.9104 0.25,103.6204 0.25,61.6394 L0.25,1.9404 C8.64,1.9404 24.01,38.1294 37.58,70.0594 C51.82,103.5594 64.36,133.0894 74.54,140.1904" id="Fill-75"></path>
                    <path d="M78.9297,79.1201 L78.9297,138.8091 C70.0497,138.8091 54.2697,101.6701 40.3397,68.8901 C24.5197,31.6401 13.4997,6.9101 4.5797,0.5591 C46.0307,2.8091 78.9297,37.1201 78.9297,79.1201" id="Fill-76"></path>
                </g>
            </g>
        </g>
    </g>
</svg>