<?xml version="1.0" encoding="UTF-8"?>
<svg width="143px" height="141px" viewBox="0 0 143 141" version="1.1" xmlns="http://www.w3.org/2000/svg" xmlns:xlink="http://www.w3.org/1999/xlink">
    <title>VegifyIconOrigBGDark</title>
    <defs>
        <polygon id="vibgd-path-1" points="28.313 0.547 0.708 72.484 0.708 103.314 14.19 103.314 59.196 0.547"></polygon>
        <linearGradient x1="44.2858419%" y1="188.744445%" x2="54.3509999%" y2="-82.0586373%" id="vibgd-linearGradient-3">
            <stop stop-color="#FBAF3F" offset="0%"></stop>
            <stop stop-color="#FFD400" offset="100%"></stop>
        </linearGradient>
        <path d="M0.252,0.441 L0.252,61.636 C0.252,105.089 35.479,140.315 78.932,140.315 L78.932,140.315 C59.867,140.315 19.38,0.441 0.253,0.441 L0.253,0.441 L0.252,0.441 Z" id="vibgd-path-4"></path>
        <linearGradient x1="28.1940241%" y1="65.9039052%" x2="52.8538355%" y2="47.9186019%" id="vibgd-linearGradient-6">
            <stop stop-color="#318331" offset="0%"></stop>
            <stop stop-color="#67AE3D" offset="100%"></stop>
        </linearGradient>
        <path d="M78.932,140.315 L78.932,79.12 C78.932,35.667 43.705,0.441 0.253,0.441 L0.253,0.441 C19.38,0.441 59.867,140.315 78.932,140.315" id="vibgd-path-7"></path>
        <linearGradient x1="46.5837627%" y1="53.3596345%" x2="61.4426899%" y2="38.7465751%" id="vibgd-linearGradient-9">
            <stop stop-color="#318331" offset="0%"></stop>
            <stop stop-color="#67AE3D" offset="100%"></stop>
        </linearGradient>
    </defs>
    <g id="vibgd-Brand-Symbols" stroke="none" stroke-width="1" fill="none" fill-rule="evenodd">
        <g id="vibgd-Icon-/-BG-Dark" transform="translate(-2.000000, 0.000000)">
            <g id="vibgd-VegifyIconOrigBGDark" transform="translate(2.000000, 0.000000)">
                <g id="vibgd-Group-29" transform="translate(83.000000, 37.000000)">
                    <mask id="vibgd-mask-2" fill="white">
                        <use xlink:href="#vibgd-path-1"></use>
                    </mask>
                    <g id="vibgd-Clip-28"></g>
                    <polygon id="vibgd-Fill-27" fill="url(#vibgd-linearGradient-3)" mask="url(#vibgd-mask-2)" points="28.313 0.547 0.708 72.484 0.708 103.314 14.19 103.314 59.196 0.547"></polygon>
                </g>
                <g id="vibgd-Group-47">
                    <mask id="vibgd-mask-5" fill="white">
                        <use xlink:href="#vibgd-path-4"></use>
                    </mask>
                    <g id="vibgd-Clip-46"></g>
                    <path d="M0.252,0.441 L0.252,61.636 C0.252,105.089 35.479,140.315 78.932,140.315 L78.932,140.315 C59.867,140.315 19.38,0.441 0.253,0.441 L0.253,0.441 L0.252,0.441 Z" id="vibgd-Fill-45" fill="url(#vibgd-linearGradient-6)" mask="url(#vibgd-mask-5)"></path>
                </g>
                <g id="vibgd-Group-50">
                    <mask id="vibgd-mask-8" fill="white">
                        <use xlink:href="#vibgd-path-7"></use>
                    </mask>
                    <g id="vibgd-Clip-49"></g>
                    <path d="M78.932,140.315 L78.932,79.12 C78.932,35.667 43.705,0.441 0.253,0.441 L0.253,0.441 C19.38,0.441 59.867,140.315 78.932,140.315" id="vibgd-Fill-48" fill="url(#vibgd-linearGradient-9)" mask="url(#vibgd-mask-8)"></path>
                </g>
            </g>
        </g>
    </g>
</svg>
