<?xml version="1.0" encoding="UTF-8"?>
<svg width="142px" height="141px" viewBox="0 0 142 141" version="1.1" xmlns="http://www.w3.org/2000/svg" xmlns:xlink="http://www.w3.org/1999/xlink">
    <title>VegifyIconGreenWhite</title>
    <defs>
        <path d="M0.253,61.636 C0.253,105.089 35.479,140.315 78.931,140.315 L78.931,140.315 C59.868,140.315 19.38,0.441 0.253,0.441 L0.253,0.441 L0.253,61.636 Z" id="vigw-path-1"></path>
        <linearGradient x1="28.1945784%" y1="65.9039052%" x2="52.8537629%" y2="47.9186019%" id="vigw-linearGradient-3">
            <stop stop-color="#318331" offset="0%"></stop>
            <stop stop-color="#67AE3D" offset="100%"></stop>
        </linearGradient>
        <path d="M78.931,140.315 L78.931,79.12 C78.931,35.667 43.706,0.441 0.253,0.441 L0.253,0.441 C19.38,0.441 59.868,140.315 78.931,140.315" id="vigw-path-4"></path>
        <linearGradient x1="46.5840071%" y1="53.3596345%" x2="61.4427456%" y2="38.7465751%" id="vigw-linearGradient-6">
            <stop stop-color="#318331" offset="0%"></stop>
            <stop stop-color="#67AE3D" offset="100%"></stop>
        </linearGradient>
    </defs>
    <g id="vigw-Brand-Symbols" stroke="none" stroke-width="1" fill="none" fill-rule="evenodd">
        <g id="vigw-VegifyIconGreenWhite">
            <polygon id="vigw-Fill-66" fill="#FFFFFF" points="110.605 37 83 108.938 83 139.768 96.482 139.768 141.488 37"></polygon>
            <g id="vigw-Group-21">
                <mask id="vigw-mask-2" fill="white">
                    <use xlink:href="#vigw-path-1"></use>
                </mask>
                <g id="vigw-Clip-20"></g>
                <path d="M0.253,61.636 C0.253,105.089 35.479,140.315 78.931,140.315 L78.931,140.315 C59.868,140.315 19.38,0.441 0.253,0.441 L0.253,0.441 L0.253,61.636 Z" id="vigw-Fill-19" fill="url(#vigw-linearGradient-3)" mask="url(#vigw-mask-2)"></path>
            </g>
            <g id="vigw-Group-24">
                <mask id="vigw-mask-5" fill="white">
                    <use xlink:href="#vigw-path-4"></use>
                </mask>
                <g id="vigw-Clip-23"></g>
                <path d="M78.931,140.315 L78.931,79.12 C78.931,35.667 43.706,0.441 0.253,0.441 L0.253,0.441 C19.38,0.441 59.868,140.315 78.931,140.315" id="vigw-Fill-22" fill="url(#vigw-linearGradient-6)" mask="url(#vigw-mask-5)"></path>
            </g>
        </g>
    </g>
</svg>
