<?xml version="1.0" encoding="utf-8"?>
<!-- Generator: Adobe Illustrator 24.1.2, SVG Export Plug-In . SVG Version: 6.00 Build 0)  -->
<svg version="1.1" id="Layer_1" xmlns="http://www.w3.org/2000/svg" xmlns:xlink="http://www.w3.org/1999/xlink" x="0px" y="0px"
	 viewBox="0 0 271 102" style="enable-background:new 0 0 271 102;" xml:space="preserve">
<style type="text/css">
	.st0{filter:url(#Adobe_OpacityMaskFilter);}
	.st1{fill-rule:evenodd;clip-rule:evenodd;fill:#FFFFFF;}
	.st2{mask:url(#mask-2_1_);fill-rule:evenodd;clip-rule:evenodd;fill:url(#Fill-1_1_);}
	.st3{filter:url(#Adobe_OpacityMaskFilter_1_);}
	.st4{mask:url(#mask-5_1_);fill-rule:evenodd;clip-rule:evenodd;fill:url(#Fill-4_1_);}
	.st5{filter:url(#Adobe_OpacityMaskFilter_2_);}
	.st6{mask:url(#mask-8_1_);fill-rule:evenodd;clip-rule:evenodd;fill:url(#Fill-7_1_);}
	.st7{filter:url(#Adobe_OpacityMaskFilter_3_);}
	.st8{mask:url(#mask-11_1_);fill-rule:evenodd;clip-rule:evenodd;fill:url(#Fill-10_1_);}
	.st9{filter:url(#Adobe_OpacityMaskFilter_4_);}
	.st10{mask:url(#mask-14_1_);fill-rule:evenodd;clip-rule:evenodd;fill:url(#Fill-13_1_);}
	.st11{filter:url(#Adobe_OpacityMaskFilter_5_);}
	.st12{mask:url(#mask-17_1_);fill-rule:evenodd;clip-rule:evenodd;fill:url(#Fill-16_1_);}
	.st13{filter:url(#Adobe_OpacityMaskFilter_6_);}
	.st14{mask:url(#mask-20_1_);fill-rule:evenodd;clip-rule:evenodd;fill:url(#Fill-19_1_);}
	.st15{filter:url(#Adobe_OpacityMaskFilter_7_);}
	.st16{mask:url(#mask-23_1_);fill-rule:evenodd;clip-rule:evenodd;fill:url(#Fill-22_1_);}
</style>
<g id="Group-3" transform="translate(39.254799, 28.805556)">
	<g id="Clip-2">
	</g>
	<defs>
		<filter id="Adobe_OpacityMaskFilter" filterUnits="userSpaceOnUse" x="0.3" y="0.3" width="27.7" height="48.5">
			<feColorMatrix  type="matrix" values="1 0 0 0 0  0 1 0 0 0  0 0 1 0 0  0 0 0 1 0"/>
		</filter>
	</defs>
	<mask maskUnits="userSpaceOnUse" x="0.3" y="0.3" width="27.7" height="48.5" id="mask-2_1_">
		<g class="st0">
			<polygon id="path-1_1_" class="st1" points="13.4,0.3 0.3,34.2 0.3,48.8 6.7,48.8 28,0.3 			"/>
		</g>
	</mask>
	
		<linearGradient id="Fill-1_1_" gradientUnits="userSpaceOnUse" x1="-1881.6917" y1="1080.1238" x2="-1881.5907" y2="1082.8318" gradientTransform="matrix(27.6619 0 0 -48.5289 52063.6797 52509.0273)">
		<stop  offset="0" style="stop-color:#FBAF3F"/>
		<stop  offset="1" style="stop-color:#FFD400"/>
	</linearGradient>
	<polygon id="Fill-1" class="st2" points="13.4,0.3 0.3,34.2 0.3,48.8 6.7,48.8 28,0.3 	"/>
</g>
<g id="Group-6" transform="translate(62.902269, 27.388889)">
	<g id="Clip-5">
	</g>
	<defs>
		<filter id="Adobe_OpacityMaskFilter_1_" filterUnits="userSpaceOnUse" x="0.1" y="0.3" width="49.1" height="51.3">
			<feColorMatrix  type="matrix" values="1 0 0 0 0  0 1 0 0 0  0 0 1 0 0  0 0 0 1 0"/>
		</filter>
	</defs>
	<mask maskUnits="userSpaceOnUse" x="0.1" y="0.3" width="49.1" height="51.3" id="mask-5_1_">
		<g class="st3">
			<path id="path-4_1_" class="st1" d="M15.6,2.2c-3.1,1.2-5.8,3-8.1,5.2l0,0c-2.3,2.3-4.1,5-5.4,8.2l0,0c-1.3,3.2-2,6.7-2,10.6l0,0
				c0,4,0.7,7.5,2,10.6l0,0c1.3,3.1,3.1,5.8,5.5,7.9l0,0c2.3,2.2,5.1,3.8,8.2,5l0,0c3.2,1.2,6.6,1.8,10.4,1.8l0,0
				c9.1,0,16-3.2,20.8-9.7l0,0l-8.1-6.5c-1.3,2-3.1,3.5-5.2,4.6l0,0c-2.1,1.1-4.6,1.7-7.7,1.7l0,0c-1.8,0-3.4-0.3-5.1-0.9l0,0
				c-1.6-0.6-3.1-1.4-4.3-2.5l0,0c-1.3-1-2.3-2.3-3.1-3.7l0,0c-0.8-1.4-1.2-3-1.4-4.8l0,0h36.9c0.1-0.5,0.1-1.1,0.1-1.6l0,0v-1.6
				c0-4.4-0.6-8.2-1.8-11.5l0,0c-1.2-3.3-2.8-6-4.9-8.2l0,0C40.4,4.8,38,3.1,35.1,2l0,0c-2.9-1.1-6-1.7-9.3-1.7l0,0
				C22.1,0.3,18.7,1,15.6,2.2 M16.4,12.7c2.5-2.2,5.6-3.3,9.2-3.3l0,0c2,0,3.7,0.3,5.1,1l0,0c1.4,0.6,2.6,1.5,3.6,2.6l0,0
				c0.9,1.1,1.6,2.3,2.1,3.7l0,0c0.4,1.4,0.7,2.9,0.7,4.4l0,0H12.2C12.5,17.7,13.9,14.9,16.4,12.7"/>
		</g>
	</mask>
	
		<linearGradient id="Fill-4_1_" gradientUnits="userSpaceOnUse" x1="-1935.5645" y1="1082.7035" x2="-1935.4038" y2="1085.2668" gradientTransform="matrix(49.1243 0 0 -51.2687 95103.7891 55604.3203)">
		<stop  offset="0" style="stop-color:#FBAF3F"/>
		<stop  offset="1" style="stop-color:#FFD400"/>
	</linearGradient>
	<path id="Fill-4" class="st4" d="M15.6,2.2c-3.1,1.2-5.8,3-8.1,5.2l0,0c-2.3,2.3-4.1,5-5.4,8.2l0,0c-1.3,3.2-2,6.7-2,10.6l0,0
		c0,4,0.7,7.5,2,10.6l0,0c1.3,3.1,3.1,5.8,5.5,7.9l0,0c2.3,2.2,5.1,3.8,8.2,5l0,0c3.2,1.2,6.6,1.8,10.4,1.8l0,0
		c9.1,0,16-3.2,20.8-9.7l0,0l-8.1-6.5c-1.3,2-3.1,3.5-5.2,4.6l0,0c-2.1,1.1-4.6,1.7-7.7,1.7l0,0c-1.8,0-3.4-0.3-5.1-0.9l0,0
		c-1.6-0.6-3.1-1.4-4.3-2.5l0,0c-1.3-1-2.3-2.3-3.1-3.7l0,0c-0.8-1.4-1.2-3-1.4-4.8l0,0h36.9c0.1-0.5,0.1-1.1,0.1-1.6l0,0v-1.6
		c0-4.4-0.6-8.2-1.8-11.5l0,0c-1.2-3.3-2.8-6-4.9-8.2l0,0C40.4,4.8,38,3.1,35.1,2l0,0c-2.9-1.1-6-1.7-9.3-1.7l0,0
		C22.1,0.3,18.7,1,15.6,2.2 M16.4,12.7c2.5-2.2,5.6-3.3,9.2-3.3l0,0c2,0,3.7,0.3,5.1,1l0,0c1.4,0.6,2.6,1.5,3.6,2.6l0,0
		c0.9,1.1,1.6,2.3,2.1,3.7l0,0c0.4,1.4,0.7,2.9,0.7,4.4l0,0H12.2C12.5,17.7,13.9,14.9,16.4,12.7"/>
</g>
<g id="Group-9" transform="translate(113.980803, 27.388889)">
	<g id="Clip-8">
	</g>
	<defs>
		<filter id="Adobe_OpacityMaskFilter_2_" filterUnits="userSpaceOnUse" x="0" y="0.3" width="52.2" height="74.1">
			<feColorMatrix  type="matrix" values="1 0 0 0 0  0 1 0 0 0  0 0 1 0 0  0 0 0 1 0"/>
		</filter>
	</defs>
	<mask maskUnits="userSpaceOnUse" x="0" y="0.3" width="52.2" height="74.1" id="mask-8_1_">
		<g class="st5">
			<path id="path-7_1_" class="st1" d="M13.9,2.4C11,3.7,8.5,5.5,6.4,7.8l0,0c-2.1,2.3-3.6,5-4.8,8.1l0,0C0.6,19,0,22.3,0,25.8l0,0
				c0,3.4,0.6,6.7,1.7,9.7l0,0c1.1,3.1,2.7,5.7,4.8,8l0,0c2.1,2.3,4.6,4.1,7.5,5.5l0,0c3,1.3,6.3,2,9.9,2l0,0c3.4,0,6.4-0.6,9.1-1.9
				l0,0c2.7-1.3,5-3.1,6.7-5.5l0,0H40v3.5c0,2.4-0.3,4.7-0.8,6.7l0,0c-0.5,2-1.3,3.8-2.5,5.3l0,0c-1.2,1.5-2.8,2.6-4.8,3.5l0,0
				c-2,0.8-4.4,1.3-7.3,1.3l0,0c-3,0-6-0.6-9-1.8l0,0c-3-1.2-5.6-2.9-8-5.1l0,0l-7,9.4C2.3,67.7,4,68.9,6,69.9l0,0
				c2,1,4,1.9,6.1,2.5l0,0c2.1,0.7,4.3,1.2,6.5,1.5l0,0c2.2,0.3,4.3,0.5,6.2,0.5l0,0c4.7,0,8.8-0.7,12.2-2l0,0
				c3.4-1.3,6.3-3.2,8.5-5.7l0,0c2.3-2.5,3.9-5.5,5-9l0,0c1.1-3.5,1.6-7.5,1.6-11.9l0,0V1.8H40.6V9h-0.2c-1.8-3-4.1-5.1-7.1-6.6l0,0
				c-3-1.4-6.2-2.1-9.6-2.1l0,0C20.1,0.3,16.8,1,13.9,2.4 M20.4,39.6c-1.7-0.9-3.2-2-4.3-3.5l0,0c-1.2-1.4-2.1-3.1-2.7-4.9l0,0
				c-0.6-1.8-1-3.7-1-5.6l0,0c0-2.1,0.3-4.2,1-6l0,0c0.6-1.9,1.5-3.5,2.7-4.9l0,0c1.2-1.4,2.6-2.5,4.3-3.3l0,0
				c1.7-0.8,3.7-1.2,5.9-1.2l0,0c2.2,0,4.2,0.4,6,1.2l0,0c1.8,0.8,3.2,1.9,4.5,3.3l0,0c1.2,1.4,2.2,3.1,2.9,4.9l0,0
				c0.7,1.9,1,3.9,1,5.9l0,0c0,2-0.3,3.9-1,5.8l0,0c-0.7,1.8-1.6,3.5-2.9,4.9l0,0c-1.2,1.4-2.8,2.5-4.5,3.4l0,0
				c-1.8,0.8-3.8,1.3-6,1.3l0,0C24,40.9,22.1,40.5,20.4,39.6"/>
		</g>
	</mask>
	
		<linearGradient id="Fill-7_1_" gradientUnits="userSpaceOnUse" x1="-1988.8613" y1="1089.4026" x2="-1988.7797" y2="1091.1766" gradientTransform="matrix(52.1569 0 0 -74.0784 103756.7969 80800.2188)">
		<stop  offset="0" style="stop-color:#FBAF3F"/>
		<stop  offset="1" style="stop-color:#FFD400"/>
	</linearGradient>
	<path id="Fill-7" class="st6" d="M13.9,2.4C11,3.7,8.5,5.5,6.4,7.8l0,0c-2.1,2.3-3.6,5-4.8,8.1l0,0C0.6,19,0,22.3,0,25.8l0,0
		c0,3.4,0.6,6.7,1.7,9.7l0,0c1.1,3.1,2.7,5.7,4.8,8l0,0c2.1,2.3,4.6,4.1,7.5,5.5l0,0c3,1.3,6.3,2,9.9,2l0,0c3.4,0,6.4-0.6,9.1-1.9
		l0,0c2.7-1.3,5-3.1,6.7-5.5l0,0H40v3.5c0,2.4-0.3,4.7-0.8,6.7l0,0c-0.5,2-1.3,3.8-2.5,5.3l0,0c-1.2,1.5-2.8,2.6-4.8,3.5l0,0
		c-2,0.8-4.4,1.3-7.3,1.3l0,0c-3,0-6-0.6-9-1.8l0,0c-3-1.2-5.6-2.9-8-5.1l0,0l-7,9.4C2.3,67.7,4,68.9,6,69.9l0,0c2,1,4,1.9,6.1,2.5
		l0,0c2.1,0.7,4.3,1.2,6.5,1.5l0,0c2.2,0.3,4.3,0.5,6.2,0.5l0,0c4.7,0,8.8-0.7,12.2-2l0,0c3.4-1.3,6.3-3.2,8.5-5.7l0,0
		c2.3-2.5,3.9-5.5,5-9l0,0c1.1-3.5,1.6-7.5,1.6-11.9l0,0V1.8H40.6V9h-0.2c-1.8-3-4.1-5.1-7.1-6.6l0,0c-3-1.4-6.2-2.1-9.6-2.1l0,0
		C20.1,0.3,16.8,1,13.9,2.4 M20.4,39.6c-1.7-0.9-3.2-2-4.3-3.5l0,0c-1.2-1.4-2.1-3.1-2.7-4.9l0,0c-0.6-1.8-1-3.7-1-5.6l0,0
		c0-2.1,0.3-4.2,1-6l0,0c0.6-1.9,1.5-3.5,2.7-4.9l0,0c1.2-1.4,2.6-2.5,4.3-3.3l0,0c1.7-0.8,3.7-1.2,5.9-1.2l0,0c2.2,0,4.2,0.4,6,1.2
		l0,0c1.8,0.8,3.2,1.9,4.5,3.3l0,0c1.2,1.4,2.2,3.1,2.9,4.9l0,0c0.7,1.9,1,3.9,1,5.9l0,0c0,2-0.3,3.9-1,5.8l0,0
		c-0.7,1.8-1.6,3.5-2.9,4.9l0,0c-1.2,1.4-2.8,2.5-4.5,3.4l0,0c-1.8,0.8-3.8,1.3-6,1.3l0,0C24,40.9,22.1,40.5,20.4,39.6"/>
</g>
<g id="Group-12" transform="translate(169.315881, 5.194444)">
	<g id="Clip-11">
	</g>
	<defs>
		<filter id="Adobe_OpacityMaskFilter_3_" filterUnits="userSpaceOnUse" x="0.1" y="0.2" width="15.6" height="72.2">
			<feColorMatrix  type="matrix" values="1 0 0 0 0  0 1 0 0 0  0 0 1 0 0  0 0 0 1 0"/>
		</filter>
	</defs>
	<mask maskUnits="userSpaceOnUse" x="0.1" y="0.2" width="15.6" height="72.2" id="mask-11_1_">
		<g class="st7">
			<path id="path-10_1_" class="st1" d="M2.2,2.4C0.8,3.9,0.1,5.6,0.1,7.5l0,0c0,2,0.7,3.6,2.2,5.1l0,0c1.4,1.4,3.3,2.2,5.5,2.2l0,0
				c2.2,0,4.1-0.7,5.6-2.1l0,0c1.5-1.4,2.3-3.1,2.3-5.2l0,0c0-2.1-0.8-3.8-2.3-5.2l0,0C11.9,0.9,10,0.2,7.8,0.2l0,0
				C5.5,0.2,3.7,1,2.2,2.4L2.2,2.4z M1.8,72.4h12.1V24H1.8V72.4z"/>
		</g>
	</mask>
	
		<linearGradient id="Fill-10_1_" gradientUnits="userSpaceOnUse" x1="-1958.0044" y1="1110.8523" x2="-1957.9788" y2="1112.6735" gradientTransform="matrix(15.5657 0 0 -72.1608 30485.2344 80283.375)">
		<stop  offset="0" style="stop-color:#FBAF3F"/>
		<stop  offset="1" style="stop-color:#FFD400"/>
	</linearGradient>
	<path id="Fill-10" class="st8" d="M2.2,2.4C0.8,3.9,0.1,5.6,0.1,7.5l0,0c0,2,0.7,3.6,2.2,5.1l0,0c1.4,1.4,3.3,2.2,5.5,2.2l0,0
		c2.2,0,4.1-0.7,5.6-2.1l0,0c1.5-1.4,2.3-3.1,2.3-5.2l0,0c0-2.1-0.8-3.8-2.3-5.2l0,0C11.9,0.9,10,0.2,7.8,0.2l0,0
		C5.5,0.2,3.7,1,2.2,2.4L2.2,2.4z M1.8,72.4h12.1V24H1.8V72.4z"/>
</g>
<g id="Group-15" transform="translate(185.869110, 0.000000)">
	<g id="Clip-14">
	</g>
	<defs>
		<filter id="Adobe_OpacityMaskFilter_4_" filterUnits="userSpaceOnUse" x="0" y="0.1" width="35" height="77.5">
			<feColorMatrix  type="matrix" values="1 0 0 0 0  0 1 0 0 0  0 0 1 0 0  0 0 0 1 0"/>
		</filter>
	</defs>
	<mask maskUnits="userSpaceOnUse" x="0" y="0.1" width="35" height="77.5" id="mask-14_1_">
		<g class="st9">
			<path id="path-13_1_" class="st1" d="M19.4,1.8c-2.5,1.2-4.5,2.8-6,4.8l0,0c-1.5,2-2.6,4.4-3.2,7l0,0c-0.6,2.7-1,5.4-1,8.3l0,0
				v7.2H0v9.7h9.2v38.8h12.1V38.8h13l-4.2-9.7h-8.8v-7.9c0-1.2,0.1-2.5,0.3-3.7l0,0c0.2-1.3,0.6-2.5,1.2-3.5l0,0
				c0.6-1.1,1.4-2,2.5-2.6l0,0c1.1-0.7,2.5-1,4.2-1l0,0c0.9,0,1.7,0.1,2.5,0.2l0,0c0.8,0.1,1.5,0.3,2.2,0.5l0,0L35,0.8
				c-0.9-0.3-1.9-0.5-2.8-0.6l0,0c-0.9-0.1-2-0.2-3.4-0.2l0,0C25.1,0.1,21.9,0.7,19.4,1.8"/>
		</g>
	</mask>
	
		<linearGradient id="Fill-13_1_" gradientUnits="userSpaceOnUse" x1="-2042.744" y1="1117.0571" x2="-2042.694" y2="1118.7526" gradientTransform="matrix(34.9741 0 0 -77.5101 71459.1797 86713.4922)">
		<stop  offset="0" style="stop-color:#FBAF3F"/>
		<stop  offset="1" style="stop-color:#FFD400"/>
	</linearGradient>
	<path id="Fill-13" class="st10" d="M19.4,1.8c-2.5,1.2-4.5,2.8-6,4.8l0,0c-1.5,2-2.6,4.4-3.2,7l0,0c-0.6,2.7-1,5.4-1,8.3l0,0v7.2H0
		v9.7h9.2v38.8h12.1V38.8h13l-4.2-9.7h-8.8v-7.9c0-1.2,0.1-2.5,0.3-3.7l0,0c0.2-1.3,0.6-2.5,1.2-3.5l0,0c0.6-1.1,1.4-2,2.5-2.6l0,0
		c1.1-0.7,2.5-1,4.2-1l0,0c0.9,0,1.7,0.1,2.5,0.2l0,0c0.8,0.1,1.5,0.3,2.2,0.5l0,0L35,0.8c-0.9-0.3-1.9-0.5-2.8-0.6l0,0
		c-0.9-0.1-2-0.2-3.4-0.2l0,0C25.1,0.1,21.9,0.7,19.4,1.8"/>
</g>
<g id="Group-18" transform="translate(218.502618, 28.805556)">
	<g id="Clip-17">
	</g>
	<defs>
		<filter id="Adobe_OpacityMaskFilter_5_" filterUnits="userSpaceOnUse" x="0.4" y="0.3" width="51.9" height="72.7">
			<feColorMatrix  type="matrix" values="1 0 0 0 0  0 1 0 0 0  0 0 1 0 0  0 0 0 1 0"/>
		</filter>
	</defs>
	<mask maskUnits="userSpaceOnUse" x="0.4" y="0.3" width="51.9" height="72.7" id="mask-17_1_">
		<g class="st11">
			<path id="path-16_1_" class="st1" d="M39.6,0.3l-12,35.2h-0.2L13.9,0.3H0.4l20.8,48.4l-2.4,6.2c-0.5,1.3-1,2.4-1.5,3.3l0,0
				c-0.5,0.9-1,1.7-1.6,2.4l0,0c-0.6,0.6-1.3,1.1-2.2,1.4l0,0c-0.9,0.3-2,0.5-3.2,0.5l0,0c-0.7,0-1.4-0.1-2.2-0.2l0,0
				c-0.8-0.1-1.6-0.3-2.4-0.6l0,0l-1,10.5c1.1,0.3,2.1,0.5,3.2,0.6l0,0c1,0.1,2.1,0.2,3.1,0.2l0,0c2.7,0,5-0.3,6.9-0.9l0,0
				c1.9-0.6,3.6-1.5,5-2.7l0,0c1.4-1.2,2.6-2.6,3.6-4.3l0,0c1-1.7,2-3.7,2.8-5.9l0,0L52.3,0.3H39.6z"/>
		</g>
	</mask>
	
		<linearGradient id="Fill-16_1_" gradientUnits="userSpaceOnUse" x1="-2093.1968" y1="1087.6182" x2="-2093.1123" y2="1089.4266" gradientTransform="matrix(51.8542 0 0 -72.666 108563.875 79137.0938)">
		<stop  offset="0" style="stop-color:#FBAF3F"/>
		<stop  offset="1" style="stop-color:#FFD400"/>
	</linearGradient>
	<path id="Fill-16" class="st12" d="M39.6,0.3l-12,35.2h-0.2L13.9,0.3H0.4l20.8,48.4l-2.4,6.2c-0.5,1.3-1,2.4-1.5,3.3l0,0
		c-0.5,0.9-1,1.7-1.6,2.4l0,0c-0.6,0.6-1.3,1.1-2.2,1.4l0,0c-0.9,0.3-2,0.5-3.2,0.5l0,0c-0.7,0-1.4-0.1-2.2-0.2l0,0
		c-0.8-0.1-1.6-0.3-2.4-0.6l0,0l-1,10.5c1.1,0.3,2.1,0.5,3.2,0.6l0,0c1,0.1,2.1,0.2,3.1,0.2l0,0c2.7,0,5-0.3,6.9-0.9l0,0
		c1.9-0.6,3.6-1.5,5-2.7l0,0c1.4-1.2,2.6-2.6,3.6-4.3l0,0c1-1.7,2-3.7,2.8-5.9l0,0L52.3,0.3H39.6z"/>
</g>
<g id="Group-21" transform="translate(0.000000, 11.333333)">
	<g id="Clip-20">
	</g>
	<defs>
		<filter id="Adobe_OpacityMaskFilter_6_" filterUnits="userSpaceOnUse" x="0.1" y="0.2" width="37.2" height="66.1">
			<feColorMatrix  type="matrix" values="1 0 0 0 0  0 1 0 0 0  0 0 1 0 0  0 0 0 1 0"/>
		</filter>
	</defs>
	<mask maskUnits="userSpaceOnUse" x="0.1" y="0.2" width="37.2" height="66.1" id="mask-20_1_">
		<g class="st13">
			<path id="path-19_1_" class="st1" d="M0.1,29.1c0,20.5,16.7,37.2,37.2,37.2l0,0c-9,0-28.2-66.1-37.2-66.1l0,0V29.1z"/>
		</g>
	</mask>
	
		<linearGradient id="Fill-19_1_" gradientUnits="userSpaceOnUse" x1="-1860.3357" y1="1104.4441" x2="-1860.0884" y2="1104.6239" gradientTransform="matrix(37.2107 0 0 -66.0516 69235 72994.0469)">
		<stop  offset="0" style="stop-color:#318331"/>
		<stop  offset="1" style="stop-color:#67AE3D"/>
	</linearGradient>
	<path id="Fill-19" class="st14" d="M0.1,29.1c0,20.5,16.7,37.2,37.2,37.2l0,0c-9,0-28.2-66.1-37.2-66.1l0,0V29.1z"/>
</g>
<g id="Group-24" transform="translate(0.000000, 11.333333)">
	<g id="Clip-23">
	</g>
	<defs>
		<filter id="Adobe_OpacityMaskFilter_7_" filterUnits="userSpaceOnUse" x="0.1" y="0.2" width="37.2" height="66.1">
			<feColorMatrix  type="matrix" values="1 0 0 0 0  0 1 0 0 0  0 0 1 0 0  0 0 0 1 0"/>
		</filter>
	</defs>
	<mask maskUnits="userSpaceOnUse" x="0.1" y="0.2" width="37.2" height="66.1" id="mask-23_1_">
		<g class="st15">
			<path id="path-22_1_" class="st1" d="M37.3,66.3V37.4c0-20.5-16.7-37.2-37.2-37.2l0,0C9.2,0.2,28.3,66.3,37.3,66.3"/>
		</g>
	</mask>
	
		<linearGradient id="Fill-22_1_" gradientUnits="userSpaceOnUse" x1="-1860.1512" y1="1104.5695" x2="-1860.0022" y2="1104.7156" gradientTransform="matrix(37.2107 0 0 -66.0516 69235 72994.0469)">
		<stop  offset="0" style="stop-color:#318331"/>
		<stop  offset="1" style="stop-color:#67AE3D"/>
	</linearGradient>
	<path id="Fill-22" class="st16" d="M37.3,66.3V37.4c0-20.5-16.7-37.2-37.2-37.2l0,0C9.2,0.2,28.3,66.3,37.3,66.3"/>
</g>
</svg>
