<?xml version="1.0" encoding="UTF-8"?>
<svg width="573px" height="216px" viewBox="0 0 573 216" version="1.1" xmlns="http://www.w3.org/2000/svg" xmlns:xlink="http://www.w3.org/1999/xlink">
    <title>VegifyLogoBGLight</title>
    <defs>
        <polygon id="path-1" points="28.314 0.547 0.708 72.484 0.708 103.314 14.19 103.314 59.196 0.547"></polygon>
        <linearGradient x1="44.2858419%" y1="188.744445%" x2="54.3509999%" y2="-82.0586373%" id="linearGradient-3">
            <stop stop-color="#FBAF3F" offset="0%"></stop>
            <stop stop-color="#FFD400" offset="100%"></stop>
        </linearGradient>
        <path d="M32.982,4.69 C26.356,7.327 20.62,11.032 15.778,15.803 L15.778,15.803 C10.932,20.58 7.123,26.348 4.343,33.115 L4.343,33.115 C1.565,39.884 0.176,47.402 0.176,55.663 L0.176,55.663 C0.176,64.071 1.565,71.584 4.343,78.21 L4.343,78.21 C7.123,84.836 10.969,90.43 15.884,94.987 L15.884,94.987 C20.8,99.549 26.605,103.075 33.303,105.566 L33.303,105.566 C39.999,108.057 47.335,109.306 55.317,109.306 L55.317,109.306 C74.551,109.306 89.224,102.468 99.343,88.788 L99.343,88.788 L82.246,75.111 C79.394,79.245 75.76,82.485 71.346,84.836 L71.346,84.836 C66.928,87.186 61.515,88.362 55.103,88.362 L55.103,88.362 C51.396,88.362 47.837,87.721 44.417,86.439 L44.417,86.439 C40.997,85.156 37.931,83.413 35.227,81.202 L35.227,81.202 C32.518,78.995 30.344,76.361 28.708,73.295 L28.708,73.295 C27.068,70.233 26.106,66.85 25.823,63.143 L25.823,63.143 L103.831,63.143 C103.973,62.005 104.044,60.865 104.044,59.723 L104.044,59.723 L104.044,56.305 C104.044,47.044 102.796,38.96 100.305,32.048 L100.305,32.048 C97.81,25.137 94.354,19.366 89.94,14.735 L89.94,14.735 C85.521,10.106 80.285,6.613 74.231,4.263 L74.231,4.263 C68.173,1.911 61.584,0.737 54.462,0.737 L54.462,0.737 C46.768,0.737 39.608,2.056 32.982,4.69 M34.692,26.917 C40.036,22.288 46.553,19.971 54.248,19.971 L54.248,19.971 C58.378,19.971 61.975,20.649 65.041,22 L65.041,22 C68.103,23.356 70.631,25.174 72.628,27.452 L72.628,27.452 C74.621,29.731 76.081,32.366 77.009,35.359 L77.009,35.359 C77.935,38.351 78.399,41.487 78.399,44.762 L78.399,44.762 L25.823,44.762 C26.39,37.496 29.349,31.548 34.692,26.917" id="path-4"></path>
        <linearGradient x1="41.6384335%" y1="185.636324%" x2="57.6535933%" y2="-70.6948606%" id="linearGradient-6">
            <stop stop-color="#FBAF3F" offset="0%"></stop>
            <stop stop-color="#FFD400" offset="100%"></stop>
        </linearGradient>
        <path d="M29.396,5.01 C23.197,7.862 17.925,11.709 13.581,16.551 L13.581,16.551 C9.232,21.396 5.887,27.097 3.535,33.65 L3.535,33.65 C1.184,40.205 0.009,47.188 0.009,54.594 L0.009,54.594 C0.009,61.861 1.218,68.736 3.642,75.217 L3.642,75.217 C6.063,81.702 9.446,87.368 13.794,92.208 L13.794,92.208 C18.139,97.055 23.445,100.901 29.716,103.75 L29.716,103.75 C35.985,106.598 42.967,108.026 50.661,108.026 L50.661,108.026 C57.784,108.026 64.233,106.692 70.003,104.031 L70.003,104.031 C75.774,101.368 80.509,97.517 84.215,92.479 L84.215,92.479 L84.643,92.479 L84.643,99.987 C84.643,105.135 84.109,109.854 83.04,114.146 L83.04,114.146 C81.972,118.433 80.187,122.154 77.696,125.299 L77.696,125.299 C75.202,128.446 71.853,130.909 67.652,132.699 L67.652,132.699 C63.447,134.486 58.281,135.38 52.157,135.38 L52.157,135.38 C45.746,135.38 39.405,134.132 33.135,131.641 L33.135,131.641 C26.865,129.146 21.238,125.55 16.252,120.848 L16.252,120.848 L1.505,140.724 C4.781,143.428 8.484,145.854 12.618,147.989 L12.618,147.989 C16.75,150.128 21.061,151.908 25.549,153.333 L25.549,153.333 C30.037,154.756 34.596,155.824 39.227,156.539 L39.227,156.539 C43.855,157.251 48.237,157.609 52.371,157.609 L52.371,157.609 C62.343,157.609 70.965,156.182 78.232,153.333 L78.232,153.333 C85.498,150.48 91.516,146.458 96.291,141.259 L96.291,141.259 C101.064,136.054 104.59,129.717 106.87,122.238 L106.87,122.238 C109.147,114.757 110.289,106.384 110.289,97.125 L110.289,97.125 L110.289,3.728 L85.926,3.728 L85.926,19.117 L85.498,19.117 C81.791,12.849 76.806,8.216 70.538,5.223 L70.538,5.223 C64.265,2.231 57.5,0.737 50.234,0.737 L50.234,0.737 C42.54,0.737 35.594,2.161 29.396,5.01 M43.074,83.884 C39.442,82.038 36.375,79.587 33.884,76.535 L33.884,76.535 C31.389,73.483 29.466,70.035 28.113,66.201 L28.113,66.201 C26.758,62.368 26.083,58.394 26.083,54.274 L26.083,54.274 C26.083,49.731 26.758,45.471 28.113,41.492 L28.113,41.492 C29.466,37.517 31.389,34.074 33.884,31.161 L33.884,31.161 C36.375,28.249 39.442,25.941 43.074,24.238 L43.074,24.238 C46.707,22.536 50.875,21.682 55.577,21.682 L55.577,21.682 C60.278,21.682 64.48,22.536 68.187,24.238 L68.187,24.238 C71.889,25.941 75.058,28.287 77.696,31.268 L77.696,31.268 C80.332,34.251 82.363,37.73 83.788,41.705 L83.788,41.705 C85.211,45.681 85.926,49.872 85.926,54.274 L85.926,54.274 C85.926,58.534 85.211,62.618 83.788,66.522 L83.788,66.522 C82.363,70.429 80.332,73.872 77.696,76.854 L77.696,76.854 C75.058,79.836 71.853,82.214 68.079,83.99 L68.079,83.99 C64.302,85.767 60.065,86.653 55.363,86.653 L55.363,86.653 C50.801,86.653 46.707,85.731 43.074,83.884" id="path-7"></path>
        <linearGradient x1="46.1050701%" y1="133.132174%" x2="54.2496197%" y2="-44.2711887%" id="linearGradient-9">
            <stop stop-color="#FBAF3F" offset="0%"></stop>
            <stop stop-color="#FFD400" offset="100%"></stop>
        </linearGradient>
        <path d="M4.755,5.099 C1.688,8.163 0.16,11.76 0.16,15.892 L0.16,15.892 C0.16,20.026 1.688,23.621 4.755,26.685 L4.755,26.685 C7.816,29.749 11.7,31.28 16.402,31.28 L16.402,31.28 C21.103,31.28 25.059,29.819 28.264,26.898 L28.264,26.898 C31.469,23.979 33.072,20.309 33.072,15.892 L33.072,15.892 C33.072,11.477 31.469,7.806 28.264,4.886 L28.264,4.886 C25.059,1.965 21.103,0.504 16.402,0.504 L16.402,0.504 C11.7,0.504 7.816,2.037 4.755,5.099 L4.755,5.099 Z M3.793,153.315 L29.439,153.315 L29.439,50.728 L3.793,50.728 L3.793,153.315 Z" id="path-10"></path>
        <linearGradient x1="48.1142051%" y1="170.732673%" x2="50.675775%" y2="-11.3852399%" id="linearGradient-12">
            <stop stop-color="#FBAF3F" offset="0%"></stop>
            <stop stop-color="#FFD400" offset="100%"></stop>
        </linearGradient>
        <path d="M41.088,3.917 C35.815,6.41 31.577,9.794 28.371,14.067 L28.371,14.067 C25.165,18.343 22.884,23.295 21.533,28.922 L21.533,28.922 C20.175,34.551 19.502,40.43 19.502,46.553 L19.502,46.553 L19.502,61.728 L0.052,61.728 L0.052,82.244 L19.502,82.244 L19.502,164.315 L45.149,164.315 L45.149,82.244 L72.55,82.244 L63.72,61.728 L45.149,61.728 L45.149,45.057 C45.149,42.493 45.361,39.859 45.79,37.15 L45.79,37.15 C46.217,34.446 47.035,31.95 48.247,29.669 L48.247,29.669 C49.456,27.393 51.202,25.538 53.484,24.114 L53.484,24.114 C55.76,22.691 58.753,21.975 62.459,21.975 L62.459,21.975 C64.31,21.975 66.056,22.119 67.696,22.403 L67.696,22.403 C69.332,22.691 70.865,23.044 72.291,23.471 L72.291,23.471 L74.001,1.671 C72.004,1.104 70.047,0.711 68.123,0.498 L68.123,0.498 C66.201,0.282 63.812,0.176 60.962,0.176 L60.962,0.176 C52.982,0.176 46.356,1.426 41.088,3.917" id="path-13"></path>
        <linearGradient x1="46.1444534%" y1="168.029164%" x2="51.1329528%" y2="-1.51993938%" id="linearGradient-15">
            <stop stop-color="#FBAF3F" offset="0%"></stop>
            <stop stop-color="#FFD400" offset="100%"></stop>
        </linearGradient>
        <path d="M83.819,0.728 L58.386,75.317 L57.959,75.317 L29.32,0.728 L0.894,0.728 L44.921,103.315 L39.792,116.351 C38.65,119.056 37.582,121.408 36.587,123.404 L36.587,123.404 C35.589,125.397 34.449,127.07 33.167,128.427 L33.167,128.427 C31.885,129.779 30.314,130.777 28.465,131.42 L28.465,131.42 C26.612,132.061 24.331,132.38 21.626,132.38 L21.626,132.38 C20.2,132.38 18.667,132.274 17.03,132.061 L17.03,132.061 C15.391,131.848 13.718,131.451 12.009,130.884 L12.009,130.884 L9.871,153.112 C12.149,153.679 14.392,154.074 16.604,154.287 L16.604,154.287 C18.811,154.501 20.985,154.609 23.122,154.609 L23.122,154.609 C28.818,154.609 33.701,153.966 37.762,152.684 L37.762,152.684 C41.823,151.403 45.35,149.513 48.342,147.021 L48.342,147.021 C51.334,144.527 53.898,141.464 56.035,137.832 L56.035,137.832 C58.173,134.197 60.167,130.03 62.019,125.328 L62.019,125.328 L110.534,0.728 L83.819,0.728 Z" id="path-16"></path>
        <linearGradient x1="43.3493501%" y1="142.938523%" x2="51.7644681%" y2="-37.9130462%" id="linearGradient-18">
            <stop stop-color="#FBAF3F" offset="0%"></stop>
            <stop stop-color="#FFD400" offset="100%"></stop>
        </linearGradient>
        <path d="M0.253,61.636 C0.253,105.089 35.479,140.315 78.931,140.315 L78.931,140.315 C59.868,140.315 19.38,0.441 0.253,0.441 L0.253,0.441 L0.253,61.636 Z" id="path-19"></path>
        <linearGradient x1="28.1945784%" y1="65.9039052%" x2="52.8537629%" y2="47.9186019%" id="linearGradient-21">
            <stop stop-color="#318331" offset="0%"></stop>
            <stop stop-color="#67AE3D" offset="100%"></stop>
        </linearGradient>
        <path d="M78.931,140.315 L78.931,79.12 C78.931,35.667 43.706,0.441 0.253,0.441 L0.253,0.441 C19.38,0.441 59.868,140.315 78.931,140.315" id="path-22"></path>
        <linearGradient x1="46.5840071%" y1="53.3596345%" x2="61.4427456%" y2="38.7465751%" id="linearGradient-24">
            <stop stop-color="#318331" offset="0%"></stop>
            <stop stop-color="#67AE3D" offset="100%"></stop>
        </linearGradient>
    </defs>
    <g id="Brand-Symbols" stroke="none" stroke-width="1" fill="none" fill-rule="evenodd">
        <g id="VegifyLogoBGLight">
            <g id="Group-3" transform="translate(83.000000, 61.000000)">
                <mask id="mask-2" fill="white">
                    <use xlink:href="#path-1"></use>
                </mask>
                <g id="Clip-2"></g>
                <polygon id="Fill-1" fill="url(#linearGradient-3)" mask="url(#mask-2)" points="28.314 0.547 0.708 72.484 0.708 103.314 14.19 103.314 59.196 0.547"></polygon>
            </g>
            <g id="Group-6" transform="translate(133.000000, 58.000000)">
                <mask id="mask-5" fill="white">
                    <use xlink:href="#path-4"></use>
                </mask>
                <g id="Clip-5"></g>
                <path d="M32.982,4.69 C26.356,7.327 20.62,11.032 15.778,15.803 L15.778,15.803 C10.932,20.58 7.123,26.348 4.343,33.115 L4.343,33.115 C1.565,39.884 0.176,47.402 0.176,55.663 L0.176,55.663 C0.176,64.071 1.565,71.584 4.343,78.21 L4.343,78.21 C7.123,84.836 10.969,90.43 15.884,94.987 L15.884,94.987 C20.8,99.549 26.605,103.075 33.303,105.566 L33.303,105.566 C39.999,108.057 47.335,109.306 55.317,109.306 L55.317,109.306 C74.551,109.306 89.224,102.468 99.343,88.788 L99.343,88.788 L82.246,75.111 C79.394,79.245 75.76,82.485 71.346,84.836 L71.346,84.836 C66.928,87.186 61.515,88.362 55.103,88.362 L55.103,88.362 C51.396,88.362 47.837,87.721 44.417,86.439 L44.417,86.439 C40.997,85.156 37.931,83.413 35.227,81.202 L35.227,81.202 C32.518,78.995 30.344,76.361 28.708,73.295 L28.708,73.295 C27.068,70.233 26.106,66.85 25.823,63.143 L25.823,63.143 L103.831,63.143 C103.973,62.005 104.044,60.865 104.044,59.723 L104.044,59.723 L104.044,56.305 C104.044,47.044 102.796,38.96 100.305,32.048 L100.305,32.048 C97.81,25.137 94.354,19.366 89.94,14.735 L89.94,14.735 C85.521,10.106 80.285,6.613 74.231,4.263 L74.231,4.263 C68.173,1.911 61.584,0.737 54.462,0.737 L54.462,0.737 C46.768,0.737 39.608,2.056 32.982,4.69 M34.692,26.917 C40.036,22.288 46.553,19.971 54.248,19.971 L54.248,19.971 C58.378,19.971 61.975,20.649 65.041,22 L65.041,22 C68.103,23.356 70.631,25.174 72.628,27.452 L72.628,27.452 C74.621,29.731 76.081,32.366 77.009,35.359 L77.009,35.359 C77.935,38.351 78.399,41.487 78.399,44.762 L78.399,44.762 L25.823,44.762 C26.39,37.496 29.349,31.548 34.692,26.917" id="Fill-4" fill="url(#linearGradient-6)" mask="url(#mask-5)"></path>
            </g>
            <g id="Group-9" transform="translate(241.000000, 58.000000)">
                <mask id="mask-8" fill="white">
                    <use xlink:href="#path-7"></use>
                </mask>
                <g id="Clip-8"></g>
                <path d="M29.396,5.01 C23.197,7.862 17.925,11.709 13.581,16.551 L13.581,16.551 C9.232,21.396 5.887,27.097 3.535,33.65 L3.535,33.65 C1.184,40.205 0.009,47.188 0.009,54.594 L0.009,54.594 C0.009,61.861 1.218,68.736 3.642,75.217 L3.642,75.217 C6.063,81.702 9.446,87.368 13.794,92.208 L13.794,92.208 C18.139,97.055 23.445,100.901 29.716,103.75 L29.716,103.75 C35.985,106.598 42.967,108.026 50.661,108.026 L50.661,108.026 C57.784,108.026 64.233,106.692 70.003,104.031 L70.003,104.031 C75.774,101.368 80.509,97.517 84.215,92.479 L84.215,92.479 L84.643,92.479 L84.643,99.987 C84.643,105.135 84.109,109.854 83.04,114.146 L83.04,114.146 C81.972,118.433 80.187,122.154 77.696,125.299 L77.696,125.299 C75.202,128.446 71.853,130.909 67.652,132.699 L67.652,132.699 C63.447,134.486 58.281,135.38 52.157,135.38 L52.157,135.38 C45.746,135.38 39.405,134.132 33.135,131.641 L33.135,131.641 C26.865,129.146 21.238,125.55 16.252,120.848 L16.252,120.848 L1.505,140.724 C4.781,143.428 8.484,145.854 12.618,147.989 L12.618,147.989 C16.75,150.128 21.061,151.908 25.549,153.333 L25.549,153.333 C30.037,154.756 34.596,155.824 39.227,156.539 L39.227,156.539 C43.855,157.251 48.237,157.609 52.371,157.609 L52.371,157.609 C62.343,157.609 70.965,156.182 78.232,153.333 L78.232,153.333 C85.498,150.48 91.516,146.458 96.291,141.259 L96.291,141.259 C101.064,136.054 104.59,129.717 106.87,122.238 L106.87,122.238 C109.147,114.757 110.289,106.384 110.289,97.125 L110.289,97.125 L110.289,3.728 L85.926,3.728 L85.926,19.117 L85.498,19.117 C81.791,12.849 76.806,8.216 70.538,5.223 L70.538,5.223 C64.265,2.231 57.5,0.737 50.234,0.737 L50.234,0.737 C42.54,0.737 35.594,2.161 29.396,5.01 M43.074,83.884 C39.442,82.038 36.375,79.587 33.884,76.535 L33.884,76.535 C31.389,73.483 29.466,70.035 28.113,66.201 L28.113,66.201 C26.758,62.368 26.083,58.394 26.083,54.274 L26.083,54.274 C26.083,49.731 26.758,45.471 28.113,41.492 L28.113,41.492 C29.466,37.517 31.389,34.074 33.884,31.161 L33.884,31.161 C36.375,28.249 39.442,25.941 43.074,24.238 L43.074,24.238 C46.707,22.536 50.875,21.682 55.577,21.682 L55.577,21.682 C60.278,21.682 64.48,22.536 68.187,24.238 L68.187,24.238 C71.889,25.941 75.058,28.287 77.696,31.268 L77.696,31.268 C80.332,34.251 82.363,37.73 83.788,41.705 L83.788,41.705 C85.211,45.681 85.926,49.872 85.926,54.274 L85.926,54.274 C85.926,58.534 85.211,62.618 83.788,66.522 L83.788,66.522 C82.363,70.429 80.332,73.872 77.696,76.854 L77.696,76.854 C75.058,79.836 71.853,82.214 68.079,83.99 L68.079,83.99 C64.302,85.767 60.065,86.653 55.363,86.653 L55.363,86.653 C50.801,86.653 46.707,85.731 43.074,83.884" id="Fill-7" fill="url(#linearGradient-9)" mask="url(#mask-8)"></path>
            </g>
            <g id="Group-12" transform="translate(358.000000, 11.000000)">
                <mask id="mask-11" fill="white">
                    <use xlink:href="#path-10"></use>
                </mask>
                <g id="Clip-11"></g>
                <path d="M4.755,5.099 C1.688,8.163 0.16,11.76 0.16,15.892 L0.16,15.892 C0.16,20.026 1.688,23.621 4.755,26.685 L4.755,26.685 C7.816,29.749 11.7,31.28 16.402,31.28 L16.402,31.28 C21.103,31.28 25.059,29.819 28.264,26.898 L28.264,26.898 C31.469,23.979 33.072,20.309 33.072,15.892 L33.072,15.892 C33.072,11.477 31.469,7.806 28.264,4.886 L28.264,4.886 C25.059,1.965 21.103,0.504 16.402,0.504 L16.402,0.504 C11.7,0.504 7.816,2.037 4.755,5.099 L4.755,5.099 Z M3.793,153.315 L29.439,153.315 L29.439,50.728 L3.793,50.728 L3.793,153.315 Z" id="Fill-10" fill="url(#linearGradient-12)" mask="url(#mask-11)"></path>
            </g>
            <g id="Group-15" transform="translate(393.000000, 0.000000)">
                <mask id="mask-14" fill="white">
                    <use xlink:href="#path-13"></use>
                </mask>
                <g id="Clip-14"></g>
                <path d="M41.088,3.917 C35.815,6.41 31.577,9.794 28.371,14.067 L28.371,14.067 C25.165,18.343 22.884,23.295 21.533,28.922 L21.533,28.922 C20.175,34.551 19.502,40.43 19.502,46.553 L19.502,46.553 L19.502,61.728 L0.052,61.728 L0.052,82.244 L19.502,82.244 L19.502,164.315 L45.149,164.315 L45.149,82.244 L72.55,82.244 L63.72,61.728 L45.149,61.728 L45.149,45.057 C45.149,42.493 45.361,39.859 45.79,37.15 L45.79,37.15 C46.217,34.446 47.035,31.95 48.247,29.669 L48.247,29.669 C49.456,27.393 51.202,25.538 53.484,24.114 L53.484,24.114 C55.76,22.691 58.753,21.975 62.459,21.975 L62.459,21.975 C64.31,21.975 66.056,22.119 67.696,22.403 L67.696,22.403 C69.332,22.691 70.865,23.044 72.291,23.471 L72.291,23.471 L74.001,1.671 C72.004,1.104 70.047,0.711 68.123,0.498 L68.123,0.498 C66.201,0.282 63.812,0.176 60.962,0.176 L60.962,0.176 C52.982,0.176 46.356,1.426 41.088,3.917" id="Fill-13" fill="url(#linearGradient-15)" mask="url(#mask-14)"></path>
            </g>
            <g id="Group-18" transform="translate(462.000000, 61.000000)">
                <mask id="mask-17" fill="white">
                    <use xlink:href="#path-16"></use>
                </mask>
                <g id="Clip-17"></g>
                <path d="M83.819,0.728 L58.386,75.317 L57.959,75.317 L29.32,0.728 L0.894,0.728 L44.921,103.315 L39.792,116.351 C38.65,119.056 37.582,121.408 36.587,123.404 L36.587,123.404 C35.589,125.397 34.449,127.07 33.167,128.427 L33.167,128.427 C31.885,129.779 30.314,130.777 28.465,131.42 L28.465,131.42 C26.612,132.061 24.331,132.38 21.626,132.38 L21.626,132.38 C20.2,132.38 18.667,132.274 17.03,132.061 L17.03,132.061 C15.391,131.848 13.718,131.451 12.009,130.884 L12.009,130.884 L9.871,153.112 C12.149,153.679 14.392,154.074 16.604,154.287 L16.604,154.287 C18.811,154.501 20.985,154.609 23.122,154.609 L23.122,154.609 C28.818,154.609 33.701,153.966 37.762,152.684 L37.762,152.684 C41.823,151.403 45.35,149.513 48.342,147.021 L48.342,147.021 C51.334,144.527 53.898,141.464 56.035,137.832 L56.035,137.832 C58.173,134.197 60.167,130.03 62.019,125.328 L62.019,125.328 L110.534,0.728 L83.819,0.728 Z" id="Fill-16" fill="url(#linearGradient-18)" mask="url(#mask-17)"></path>
            </g>
            <g id="Group-21" transform="translate(0.000000, 24.000000)">
                <mask id="mask-20" fill="white">
                    <use xlink:href="#path-19"></use>
                </mask>
                <g id="Clip-20"></g>
                <path d="M0.253,61.636 C0.253,105.089 35.479,140.315 78.931,140.315 L78.931,140.315 C59.868,140.315 19.38,0.441 0.253,0.441 L0.253,0.441 L0.253,61.636 Z" id="Fill-19" fill="url(#linearGradient-21)" mask="url(#mask-20)"></path>
            </g>
            <g id="Group-24" transform="translate(0.000000, 24.000000)">
                <mask id="mask-23" fill="white">
                    <use xlink:href="#path-22"></use>
                </mask>
                <g id="Clip-23"></g>
                <path d="M78.931,140.315 L78.931,79.12 C78.931,35.667 43.706,0.441 0.253,0.441 L0.253,0.441 C19.38,0.441 59.868,140.315 78.931,140.315" id="Fill-22" fill="url(#linearGradient-24)" mask="url(#mask-23)"></path>
            </g>
        </g>
    </g>
</svg>