<?xml version="1.0" encoding="UTF-8"?>
<svg width="143px" height="142px" viewBox="0 0 143 142" version="1.1" xmlns="http://www.w3.org/2000/svg" xmlns:xlink="http://www.w3.org/1999/xlink">
    <title>VegifyIconOrigBGLight</title>
    <defs>
        <polygon id="vibgl-path-1" points="28.314 0.547 0.708 72.484 0.708 103.314 14.19 103.314 59.196 0.547"></polygon>
        <linearGradient x1="44.2858419%" y1="188.744445%" x2="54.3509999%" y2="-82.0586373%" id="vibgl-linearGradient-3">
            <stop stop-color="#FBAF3F" offset="0%"></stop>
            <stop stop-color="#FFD400" offset="100%"></stop>
        </linearGradient>
        <path d="M0.253,61.636 C0.253,105.089 35.479,140.315 78.931,140.315 L78.931,140.315 C59.868,140.315 19.38,0.441 0.253,0.441 L0.253,0.441 L0.253,61.636 Z" id="vibgl-path-4"></path>
        <linearGradient x1="28.1945784%" y1="65.9039052%" x2="52.8537629%" y2="47.9186019%" id="vibgl-linearGradient-6">
            <stop stop-color="#318331" offset="0%"></stop>
            <stop stop-color="#67AE3D" offset="100%"></stop>
        </linearGradient>
        <path d="M78.931,140.315 L78.931,79.12 C78.931,35.667 43.706,0.441 0.253,0.441 L0.253,0.441 C19.38,0.441 59.868,140.315 78.931,140.315" id="vibgl-path-7"></path>
        <linearGradient x1="46.5840071%" y1="53.3596345%" x2="61.4427456%" y2="38.7465751%" id="vibgl-linearGradient-9">
            <stop stop-color="#318331" offset="0%"></stop>
            <stop stop-color="#67AE3D" offset="100%"></stop>
        </linearGradient>
    </defs>
    <g id="vibgl-Brand-Symbols" stroke="none" stroke-width="1" fill="none" fill-rule="evenodd">
        <g id="vibgl-Icon-/-BG-Light-/-Orig" transform="translate(0.000000, 1.000000)">
            <g id="vibgl-VegifyIconOrigBGLight" transform="translate(0.000000, -1.000000)">
                <g id="vibgl-Group-3" transform="translate(83.000000, 38.000000)">
                    <mask id="vibgl-mask-2" fill="white">
                        <use xlink:href="#vibgl-path-1"></use>
                    </mask>
                    <g id="vibgl-Clip-2"></g>
                    <polygon id="vibgl-Fill-1" fill="url(#vibgl-linearGradient-3)" mask="url(#vibgl-mask-2)" points="28.314 0.547 0.708 72.484 0.708 103.314 14.19 103.314 59.196 0.547"></polygon>
                </g>
                <g id="vibgl-Group-21" transform="translate(0.000000, 1.000000)">
                    <mask id="vibgl-mask-5" fill="white">
                        <use xlink:href="#vibgl-path-4"></use>
                    </mask>
                    <g id="vibgl-Clip-20"></g>
                    <path d="M0.253,61.636 C0.253,105.089 35.479,140.315 78.931,140.315 L78.931,140.315 C59.868,140.315 19.38,0.441 0.253,0.441 L0.253,0.441 L0.253,61.636 Z" id="vibgl-Fill-19" fill="url(#vibgl-linearGradient-6)" mask="url(#vibgl-mask-5)"></path>
                </g>
                <g id="vibgl-Group-24">
                    <mask id="vibgl-mask-8" fill="white">
                        <use xlink:href="#vibgl-path-7"></use>
                    </mask>
                    <g id="vibgl-Clip-23"></g>
                    <path d="M78.931,140.315 L78.931,79.12 C78.931,35.667 43.706,0.441 0.253,0.441 L0.253,0.441 C19.38,0.441 59.868,140.315 78.931,140.315" id="vibgl-Fill-22" fill="url(#vibgl-linearGradient-9)" mask="url(#vibgl-mask-8)"></path>
                </g>
            </g>
        </g>
    </g>
</svg>
