<?xml version="1.0" encoding="UTF-8"?>
<svg width="50px" height="50px" viewBox="0 0 50 50" version="1.1" xmlns="http://www.w3.org/2000/svg" xmlns:xlink="http://www.w3.org/1999/xlink">
    <title>Home</title>
    <defs>
        <path d="M4.34179688,31.8398438 C1.94388867,31.8398438 0,29.8959551 0,27.4980469 L0,11.578125 C0,11.1315127 0.206196049,10.7099161 0.558730479,10.4357227 L13.5841211,0.304863295 C14.1067439,-0.101621098 14.8385686,-0.101621098 15.3611914,0.304863295 L28.386582,10.4357227 C28.7391165,10.7099161 28.9453125,11.1315127 28.9453125,11.578125 L28.9453125,27.4980469 C28.9453125,29.8959551 27.0014238,31.8398438 24.6035156,31.8398438 L4.34179688,31.8398438 Z M14.4726563,3.28075085 L2.89453125,12.2859592 L2.89453125,27.4980469 C2.89453125,28.2973496 3.54249414,28.9453125 4.34179688,28.9453125 L8.683,28.945 L8.68359375,15.9199219 C8.68359375,15.1676369 9.2575678,14.5494108 9.99147804,14.4792814 L10.1308594,14.4726562 L18.8144531,14.4726562 C19.6137559,14.4726562 20.2617188,15.1206191 20.2617188,15.9199219 L20.2617188,15.9199219 L20.261,28.945 L24.6035156,28.9453125 C25.4028184,28.9453125 26.0507813,28.2973496 26.0507813,27.4980469 L26.0507813,12.2859592 L14.4726563,3.28075085 Z M17.3671875,17.3671875 L11.578125,17.3671875 L11.578,28.945 L17.367,28.945 L17.3671875,17.3671875 Z" id="path-1"></path>
    </defs>
    <g id="UI-Symbols" stroke="none" stroke-width="1" fill="none" fill-rule="evenodd">
        <g id="UI-/-Mobile-/-Bottom-Nav" transform="translate(-11.000000, -13.000000)">
            <g id="Home" transform="translate(11.000000, 13.000000)">
                <rect id="Background" fill="#328432" x="0" y="0" width="50" height="50" rx="25"></rect>
                <g id="home" transform="translate(10.639323, 6.882161)">
                    <mask id="mask-2" fill="white">
                        <use xlink:href="#path-1"></use>
                    </mask>
                    <use id="Combined-Shape" fill="#000000" fill-rule="nonzero" xlink:href="#path-1"></use>
                    <g id="COLOR/-black" mask="url(#mask-2)" fill="#F1F1F1">
                        <g transform="translate(-2.894531, -1.447266)" id="Rectangle">
                            <rect x="0" y="0" width="34.734375" height="34.734375"></rect>
                        </g>
                    </g>
                </g>
            </g>
        </g>
    </g>
</svg>