<?xml version="1.0" encoding="UTF-8"?>
<svg width="50px" height="50px" viewBox="0 0 50 50" version="1.1" xmlns="http://www.w3.org/2000/svg" xmlns:xlink="http://www.w3.org/1999/xlink">
    <title>Search</title>
    <g id="UI-Symbols" stroke="none" stroke-width="1" fill="none" fill-rule="evenodd">
        <g id="UI-/-Mobile-/-Bottom-Nav" transform="translate(-69.000000, -13.000000)">
            <g id="Search" transform="translate(69.000000, 13.000000)">
                <rect id="Background" fill="#328432" x="0" y="0" width="50" height="50" rx="25"></rect>
                <path d="M29.4717638,30.9449029 C29.0649676,30.5381068 29.0649676,29.8785599 29.4717638,29.4717638 C29.8785599,29.0649676 30.5381068,29.0649676 30.9449029,29.4717638 L39.032276,37.5591369 C39.4390721,37.965933 39.4390721,38.6254799 39.032276,39.032276 C38.6254799,39.4390721 37.965933,39.4390721 37.5591369,39.032276 L29.4717638,30.9449029 Z M21.875,8.85416667 C28.7785594,8.85416667 34.375,14.4506073 34.375,21.3541667 C34.375,28.257726 28.7785594,33.8541667 21.875,33.8541667 C14.9714406,33.8541667 9.375,28.257726 9.375,21.3541667 C9.375,14.4506073 14.9714406,8.85416667 21.875,8.85416667 Z M21.875,10.9375 C16.1220339,10.9375 11.4583333,15.6012005 11.4583333,21.3541667 C11.4583333,27.1071328 16.1220339,31.7708333 21.875,31.7708333 C27.6279661,31.7708333 32.2916667,27.1071328 32.2916667,21.3541667 C32.2916667,15.6012005 27.6279661,10.9375 21.875,10.9375 Z" fill="#FFFFFF" fill-rule="nonzero"></path>
            </g>
        </g>
    </g>
</svg>