<?xml version="1.0" encoding="UTF-8"?>
<svg width="50px" height="50px" viewBox="0 0 50 50" version="1.1" xmlns="http://www.w3.org/2000/svg" xmlns:xlink="http://www.w3.org/1999/xlink">
    <title>Profile</title>
    <defs>
        <path d="M16.9270833,15.625 C20.5226872,15.625 23.4375,18.5398128 23.4375,22.1354167 L23.4375,22.1354167 L23.4375,24.7395833 C23.4375,25.4587041 22.8545374,26.0416667 22.1354167,26.0416667 C21.4162959,26.0416667 20.8333333,25.4587041 20.8333333,24.7395833 L20.8333333,24.7395833 L20.8333333,22.1354167 C20.8333333,19.9780544 19.0844456,18.2291667 16.9270833,18.2291667 L16.9270833,18.2291667 L6.51041667,18.2291667 C4.35305436,18.2291667 2.60416667,19.9780544 2.60416667,22.1354167 L2.60416667,22.1354167 L2.60416667,24.7395833 C2.60416667,25.4587041 2.0212041,26.0416667 1.30208333,26.0416667 C0.582962565,26.0416667 0,25.4587041 0,24.7395833 L0,24.7395833 L0,22.1354167 C0,18.5398128 2.91481283,15.625 6.51041667,15.625 L6.51041667,15.625 Z M11.71875,0 C15.3143538,0 18.2291667,2.91481283 18.2291667,6.51041667 C18.2291667,10.1060205 15.3143538,13.0208333 11.71875,13.0208333 C8.12314616,13.0208333 5.20833333,10.1060205 5.20833333,6.51041667 C5.20833333,2.91481283 8.12314616,0 11.71875,0 Z M11.71875,2.60416667 C9.5613877,2.60416667 7.8125,4.35305436 7.8125,6.51041667 C7.8125,8.66777897 9.5613877,10.4166667 11.71875,10.4166667 C13.8761123,10.4166667 15.625,8.66777897 15.625,6.51041667 C15.625,4.35305436 13.8761123,2.60416667 11.71875,2.60416667 Z" id="path-1"></path>
    </defs>
    <g id="UI-Symbols" stroke="none" stroke-width="1" fill="none" fill-rule="evenodd">
        <g id="UI-/-Mobile-/-Bottom-Nav" transform="translate(-258.000000, -13.000000)">
            <g id="Profile" transform="translate(258.000000, 13.000000)">
                <rect id="Background" fill="#328432" x="0" y="0" width="50" height="50" rx="25"></rect>
                <g id="user" transform="translate(13.020833, 11.979167)">
                    <mask id="mask-2" fill="white">
                        <use xlink:href="#path-1"></use>
                    </mask>
                    <use id="Combined-Shape" fill="#F1F1F1" fill-rule="nonzero" xlink:href="#path-1"></use>
                </g>
            </g>
        </g>
    </g>
</svg>