<?xml version="1.0" encoding="UTF-8"?>
<svg width="252px" height="252px" viewBox="0 0 252 252" version="1.1" xmlns="http://www.w3.org/2000/svg" xmlns:xlink="http://www.w3.org/1999/xlink">
    <title>Profile Pic</title>
    <defs>
        <circle id="path-1" cx="125.93" cy="125.93" r="125.93"></circle>
        <path d="M162.68,130.585 C188.050581,130.585 208.6175,151.151919 208.6175,176.5225 L208.6175,176.5225 L208.6175,194.8975 C208.6175,199.971616 204.504116,204.085 199.43,204.085 C194.355884,204.085 190.2425,199.971616 190.2425,194.8975 L190.2425,194.8975 L190.2425,176.5225 C190.2425,161.300152 177.902348,148.96 162.68,148.96 L162.68,148.96 L89.18,148.96 C73.9576516,148.96 61.6175,161.300152 61.6175,176.5225 L61.6175,176.5225 L61.6175,194.8975 C61.6175,199.971616 57.5041161,204.085 52.43,204.085 C47.3558839,204.085 43.2425,199.971616 43.2425,194.8975 L43.2425,194.8975 L43.2425,176.5225 C43.2425,151.151919 63.8094193,130.585 89.18,130.585 L89.18,130.585 Z M125.93,20.335 C151.300581,20.335 171.8675,40.9019193 171.8675,66.2725 C171.8675,91.6430807 151.300581,112.21 125.93,112.21 C100.559419,112.21 79.9925,91.6430807 79.9925,66.2725 C79.9925,40.9019193 100.559419,20.335 125.93,20.335 Z M125.93,38.71 C110.707652,38.71 98.3675,51.0501516 98.3675,66.2725 C98.3675,81.4948484 110.707652,93.835 125.93,93.835 C141.152348,93.835 153.4925,81.4948484 153.4925,66.2725 C153.4925,51.0501516 141.152348,38.71 125.93,38.71 Z" id="path-3"></path>
    </defs>
    <g id="UX-Symbols" stroke="none" stroke-width="1" fill="none" fill-rule="evenodd">
        <g id="UX-/-Persona-Template" transform="translate(-89.000000, -64.000000)">
            <g id="Profile-Pic" transform="translate(89.000000, 64.000000)">
                <mask id="mask-2" fill="white">
                    <use xlink:href="#path-1"></use>
                </mask>
                <use id="Oval-Copy-2" fill="#F1F1F1" xlink:href="#path-1"></use>
                <mask id="mask-4" fill="white">
                    <use xlink:href="#path-3"></use>
                </mask>
                <use id="Combined-Shape-Copy-2" fill="#8A8B8A" fill-rule="nonzero" xlink:href="#path-3"></use>
            </g>
        </g>
    </g>
</svg>