<?xml version="1.0" encoding="UTF-8"?>
<svg width="96px" height="96px" viewBox="0 0 96 96" version="1.1" xmlns="http://www.w3.org/2000/svg" xmlns:xlink="http://www.w3.org/1999/xlink">
    <title>XIcon</title>
    <g id="⚛️-Symbols" stroke="none" stroke-width="1" fill="none" fill-rule="evenodd">
        <g id="XIcon">
            <rect id="Background" fill="#DFE0E2" x="0" y="0" width="96" height="96" rx="48"></rect>
            <path d="M29.9699575,29.9699575 C31.2632341,28.6766808 33.3600499,28.6766808 34.6533265,29.9699575 L34.6533265,29.9699575 L48.311,43.627 L61.9699575,29.9699575 C63.215335,28.72458 65.2058324,28.6784549 66.506404,29.8315822 L66.6533265,29.9699575 C67.9466031,31.2632341 67.9466031,33.3600499 66.6533265,34.6533265 L66.6533265,34.6533265 L52.995,48.311 L66.6533265,61.9699575 C67.898704,63.215335 67.9448291,65.2058324 66.7917018,66.506404 L66.6533265,66.6533265 C65.3600499,67.9466031 63.2632341,67.9466031 61.9699575,66.6533265 L61.9699575,66.6533265 L48.311,52.995 L34.6533265,66.6533265 C33.407949,67.898704 31.4174516,67.9448291 30.11688,66.7917018 L29.9699575,66.6533265 C28.6766808,65.3600499 28.6766808,63.2632341 29.9699575,61.9699575 L29.9699575,61.9699575 L43.627,48.311 L29.9699575,34.6533265 C28.72458,33.407949 28.6784549,31.4174516 29.8315822,30.11688 Z" id="Error" fill="#FFFFFF" fill-rule="nonzero"></path>
        </g>
    </g>
</svg>