<?xml version="1.0" encoding="UTF-8"?>
<svg width="38px" height="37px" viewBox="0 0 38 37" version="1.1" xmlns="http://www.w3.org/2000/svg" xmlns:xlink="http://www.w3.org/1999/xlink">
    <title>Add Food</title>
    <g id="UI-Symbols" stroke="none" stroke-width="1" fill="none" fill-rule="evenodd">
        <g id="UI-/-Mobile-/-Bottom-Nav" transform="translate(-142.000000, -19.000000)">
            <g id="Add-Food" transform="translate(128.000000, 6.000000)">
                <rect id="Background" x="0" y="0" width="24" height="24" rx="32"></rect>
                <g id="Group" transform="translate(14.000000, 13.333333)" fill="rgb(107 114 128)">
                    <path d="M28.6810897,16.4364583 L21.739984,9.76822917 L21.6726763,9.76822917 C20.9911859,9.28385417 20.1414263,8.93671875 19.2832532,8.93671875 C18.130609,8.93671875 17.0873397,9.4453125 16.3974359,10.2526042 L16.3469551,10.2526042 L3.08733974,30.8466146 L3.08733974,30.9111979 C2.8349359,31.4117188 2.66666667,31.9848958 2.66666667,32.5903646 C2.66666667,34.5601563 4.32411859,36.1666667 6.39383013,36.1666667 C7.18469551,36.1666667 7.90825321,35.9325521 8.69911859,35.4320313 L28.2940705,21.8614583 C29.2111378,21.1914063 29.7580128,20.1177083 29.7580128,18.9552083 C29.7580128,17.9864583 29.3625801,17.0822917 28.6810897,16.4364583 L28.6810897,16.4364583 Z M37.6666667,9.13046875 L35.2099359,5.17473958 L32.130609,6.81354167 L34.7808494,2.30078125 L30.6498397,0 L24.9875801,10.3171875 L28.4623397,13.659375 L37.6666667,9.13046875 Z" id="Shape"></path>
                    <polygon id="+" points="12 7.43062357 12 10.5693764 7.53768844 10.5693764 7.53768844 15.3333333 4.46231156 15.3333333 4.46231156 10.5693764 0 10.5693764 0 7.43062357 4.46231156 7.43062357 4.46231156 2.66666667 7.53768844 2.66666667 7.53768844 7.43062357"></polygon>
                </g>
            </g>
        </g>
    </g>
</svg>